<?xml version="1.0" encoding="UTF-8"?>
<svg width="85px" height="90px" viewBox="0 0 85 90" version="1.1" xmlns="http://www.w3.org/2000/svg" xmlns:xlink="http://www.w3.org/1999/xlink">
    <!-- Generator: Sketch 50.2 (55047) - http://www.bohemiancoding.com/sketch -->
    <title>Group</title>
    <desc>Created with Sketch.</desc>
    <defs>
        <polygon id="path-1" points="0.4658375 1.12602817 5.42249375 1.12602817 5.42249375 6.08029296 0.4658375 6.08029296"></polygon>
        <polygon id="path-3" points="0.68215625 0.228704225 5.64010937 0.228704225 5.64010937 5.18309859 0.68215625 5.18309859"></polygon>
    </defs>
    <g id="About" stroke="none" stroke-width="1" fill="none" fill-rule="evenodd">
        <g transform="translate(-1073.000000, -686.000000)" id="Group">
            <g transform="translate(1074.000000, 685.000000)">
                <path d="M73.6414906,44.5484732 C73.6414906,61.3209803 60.0333812,74.9188394 43.2453344,74.9188394 C26.4572875,74.9188394 12.8491781,61.3209803 12.8491781,44.5484732 C12.8491781,27.7759662 26.4572875,14.178107 43.2453344,14.178107 C60.0333812,14.178107 73.6414906,27.7759662 73.6414906,44.5484732 Z" id="Stroke-1" stroke="#D3D7E1" stroke-width="2"></path>
                <path d="M31.1486031,33.2989465 L45.9200094,33.2989465 C49.0143531,33.2989465 51.5484469,35.8308901 51.5484469,38.9239042 C51.5484469,42.0182141 49.0143531,44.548862 45.9200094,44.548862 L37.4708687,44.548862" id="Stroke-3" stroke="#D3D7E1" stroke-width="2"></path>
                <path d="M31.1486031,55.7978704 L49.7120719,55.7978704 C52.8090094,55.7978704 55.3418062,53.2672225 55.3418062,50.1729127 C55.3418062,47.0798986 52.8090094,44.5479549 49.7120719,44.5479549 L41.265525,44.5479549" id="Stroke-5" stroke="#D3D7E1" stroke-width="2"></path>
                <path d="M37.4708687,60.6741296 L37.4708687,28.4235944" id="Stroke-7" stroke="#D3D7E1" stroke-width="2"></path>
                <path d="M41.7832375,28.4233352 L41.7832375,33.2993352" id="Stroke-9" stroke="#D3D7E1" stroke-width="2"></path>
                <path d="M41.7832375,55.7978704 L41.7832375,60.6738704" id="Stroke-11" stroke="#D3D7E1" stroke-width="2"></path>
                <path d="M46.3981672,13.6371211 L46.3981672,8.95548732" id="Stroke-13" stroke="#D3D7E1" stroke-width="2"></path>
                <polyline id="Stroke-15" stroke="#D3D7E1" stroke-width="2" points="39.8619172 14.5367775 39.8619172 3.77277746 35.7171047 3.77277746"></polyline>
                <g id="Group-19" transform="translate(31.125000, 0.169876)">
                    <mask id="mask-2" fill="white">
                        <use xlink:href="#path-1"></use>
                    </mask>
                    <g id="Clip-18"></g>
                    <path d="M5.42249375,3.60277183 C5.42249375,4.97110986 4.31366562,6.08029296 2.94416562,6.08029296 C1.57466562,6.08029296 0.4658375,4.97110986 0.4658375,3.60277183 C0.4658375,2.2344338 1.57466562,1.1252507 2.94416562,1.1252507 C4.31366562,1.1252507 5.42249375,2.2344338 5.42249375,3.60277183" id="Fill-17" fill="#495EF2" mask="url(#mask-2)"></path>
                </g>
                <polyline id="Stroke-20" stroke="#D3D7E1" stroke-width="2" points="36.2752797 74.5600394 36.2752797 88.3976169 40.4187953 88.3976169"></polyline>
                <g id="Group-24" transform="translate(38.906250, 85.691003)">
                    <mask id="mask-4" fill="white">
                        <use xlink:href="#path-3"></use>
                    </mask>
                    <g id="Clip-23"></g>
                    <path d="M0.68215625,2.70622535 C0.68215625,1.33788732 1.79098438,0.228704225 3.16048437,0.228704225 C4.52998438,0.228704225 5.64010937,1.33788732 5.64010937,2.70622535 C5.64010937,4.07456338 4.52998438,5.18374648 3.16048437,5.18374648 C1.79098438,5.18374648 0.68215625,4.07456338 0.68215625,2.70622535" id="Fill-22" fill="#495EF2" mask="url(#mask-4)"></path>
                </g>
                <polyline id="Stroke-25" stroke="#D3D7E1" stroke-width="2" points="13.2519875 46.0409465 2.47884687 46.0409465 2.47884687 50.1822423"></polyline>
                <path d="M2.47923594,49.3519099 C3.84873594,49.3519099 4.95756406,50.4597972 4.95756406,51.8281352 C4.95756406,53.1964732 3.84873594,54.3056563 2.47923594,54.3056563 C1.10973594,54.3056563 -0.0003890625,53.1964732 -0.0003890625,51.8281352 C-0.0003890625,50.4597972 1.10973594,49.3519099 2.47923594,49.3519099 Z" id="Stroke-27" stroke="#D3D7E1" stroke-width="2"></path>
                <polyline id="Stroke-29" stroke="#D3D7E1" stroke-width="2" points="73.6414906 44.5484732 80.3152094 44.5484732 80.3152094 40.4071775"></polyline>
                <path d="M80.3145609,41.2381577 C78.9450609,41.2381577 77.8349359,40.1289746 77.8349359,38.7606366 C77.8349359,37.3935944 78.9450609,36.2844113 80.3145609,36.2844113 C81.6840609,36.2844113 82.7928891,37.3935944 82.7928891,38.7606366 C82.7928891,40.1289746 81.6840609,41.2381577 80.3145609,41.2381577 Z" id="Stroke-31" stroke="#D3D7E1" stroke-width="2"></path>
                <path d="M48.8780516,7.43100845 C48.8780516,8.79934648 47.7679266,9.9072338 46.3984266,9.9072338 C45.0289266,9.9072338 43.9200984,8.79934648 43.9200984,7.43100845 C43.9200984,6.06267042 45.0289266,4.95348732 46.3984266,4.95348732 C47.7679266,4.95348732 48.8780516,6.06267042 48.8780516,7.43100845" id="Fill-33" fill="#F9057C"></path>
                <path d="M43.2446859,74.5600394 L43.2446859,79.2416732" id="Stroke-35" stroke="#D3D7E1" stroke-width="2"></path>
                <path d="M40.7662281,80.7669296 C40.7662281,79.3985915 41.8750563,78.2894085 43.2445563,78.2894085 C44.6153531,78.2894085 45.7241813,79.3985915 45.7241813,80.7669296 C45.7241813,82.1352676 44.6153531,83.2431549 43.2445563,83.2431549 C41.8750563,83.2431549 40.7662281,82.1352676 40.7662281,80.7669296 Z" id="Stroke-37" stroke="#D3D7E1" stroke-width="2"></path>
            </g>
        </g>
    </g>
</svg>