<?xml version="1.0" encoding="UTF-8"?>
<svg width="60px" height="43px" viewBox="0 0 60 43" version="1.1" xmlns="http://www.w3.org/2000/svg" xmlns:xlink="http://www.w3.org/1999/xlink">
    <!-- Generator: Sketch 50.2 (55047) - http://www.bohemiancoding.com/sketch -->
    <title>payment-card</title>
    <desc>Created with Sketch.</desc>
    <defs>
        <polygon id="path-1" points="0 0.283760585 59.8379285 0.283760585 59.8379285 41.9117647 0 41.9117647"></polygon>
        <polygon id="path-3" points="0 42.0691324 59.8380882 42.0691324 59.8380882 0.441044118 0 0.441044118"></polygon>
    </defs>
    <g id="Platform" stroke="none" stroke-width="1" fill="none" fill-rule="evenodd">
        <g id="orca-Platform" transform="translate(-908.000000, -1905.000000)">
            <g id="Group-6-Copy-6" transform="translate(868.000000, 1871.000000)">
                <g id="payment-card" transform="translate(40.000000, 34.000000)">
                    <g id="Group-3" transform="translate(0.000000, 0.157368)">
                        <mask id="mask-2" fill="white">
                            <use xlink:href="#path-1"></use>
                        </mask>
                        <g id="Clip-2"></g>
                        <path d="M29.9029412,39.3031324 L29.9029412,39.30225 C37.7413235,39.30225 45.5797059,39.3035735 53.4180882,39.3004853 C54.2104412,39.3000441 54.9388235,39.0604853 55.5798529,38.5959265 C56.6986765,37.7859265 57.2302941,36.6776912 57.2298529,35.2976912 C57.2272059,25.8278382 57.2285294,16.3575441 57.2285294,6.88725 C57.2285294,6.79857353 57.2285294,6.70989706 57.2245588,6.62077941 C57.1835294,5.63960294 56.8266176,4.78725 56.1467647,4.08136765 C55.3411765,3.24445588 54.3388235,2.88269118 53.1842647,2.88269118 C37.6782353,2.88577941 22.1726471,2.88489706 6.66661765,2.88577941 C6.47558824,2.88622059 6.28455882,2.89725 6.09441176,2.91445588 C4.15014706,3.08783824 2.60691176,4.77710294 2.60691176,6.73195588 C2.60647059,16.3046029 2.60514706,25.8768088 2.61308824,35.4494559 C2.61308824,35.7926912 2.66823529,36.1460735 2.76132353,36.4769559 C3.24308824,38.1821029 4.73779412,39.30225 6.51132353,39.3026912 C14.3082353,39.3040147 22.1055882,39.3031324 29.9029412,39.3031324 M29.9016176,41.9109265 C22.1585294,41.9109265 14.4158824,41.9096029 6.67235294,41.9118088 C4.90323529,41.91225 3.3525,41.3466618 2.06073529,40.1303382 C0.939264706,39.0746029 0.265147059,37.7779853 0.0683823529,36.2457794 C0.0251470588,35.9082794 0.00573529412,35.5654853 0.00529411765,35.2253382 C0.00264705882,25.8026912 -0.00705882353,16.3800441 0.00882352941,6.95695588 C0.0136764706,4.13651471 1.33367647,2.09739706 3.86514706,0.858573529 C4.72323529,0.439014706 5.64882353,0.288573529 6.60397059,0.289014706 C20.8822059,0.291661765 35.1595588,0.290779412 49.4369118,0.291220588 C50.8094118,0.291220588 52.1827941,0.267397059 53.5539706,0.304897059 C55.4986765,0.358720588 57.0922059,1.17975 58.3367647,2.66077941 C59.3598529,3.87754412 59.8372059,5.30210294 59.8372059,6.88813235 C59.8376471,16.3584265 59.8389706,25.8291618 59.8363235,35.2998971 C59.8358824,38.1962206 58.0760294,40.6588676 55.3658824,41.5769559 C54.6410294,41.8226912 53.8927941,41.9113676 53.1308824,41.9113676 C45.3877941,41.9104853 37.6447059,41.9109265 29.9016176,41.9109265" id="Fill-1" fill="#D3D7E1" mask="url(#mask-2)"></path>
                    </g>
                    <mask id="mask-4" fill="white">
                        <use xlink:href="#path-3"></use>
                    </mask>
                    <g id="Clip-5"></g>
                    <path d="M10.4245588,16.04325 L15.5995588,16.04325 L15.5995588,12.1631029 L10.4245588,12.1631029 L10.4245588,16.04325 Z M12.9922059,18.6461912 C12.1252941,18.6461912 11.2583824,18.6466324 10.3914706,18.6461912 C8.99647059,18.64575 7.81676471,17.4779559 7.81102941,16.0833971 C7.80573529,14.7589853 7.80573529,13.4350147 7.81102941,12.1106029 C7.81720588,10.7297206 8.99823529,9.55398529 10.3782353,9.55177941 C12.1327941,9.54913235 13.8869118,9.54957353 15.6410294,9.55177941 C16.9954412,9.55354412 18.1848529,10.6913382 18.2077941,12.0461912 C18.2311765,13.4178088 18.2325,14.79075 18.2069118,16.1619265 C18.1822059,17.5185441 16.9919118,18.64575 15.6335294,18.6461912 C14.7529412,18.6466324 13.8727941,18.6461912 12.9922059,18.6461912 Z" id="Fill-4" fill="#485EF2" mask="url(#mask-4)"></path>
                    <path d="M42.1434706,14.7591176 C39.3106765,14.7591176 36.4778824,14.7591176 33.6450882,14.7591176 C32.9158235,14.7591176 32.3264118,14.1767647 32.3246471,13.4519118 C32.3228824,12.7275 32.9083235,12.1455882 33.6424412,12.1455882 C39.2872941,12.1451471 44.9321471,12.1469118 50.5774412,12.1433824 C51.1381765,12.1433824 51.6031765,12.3163235 51.8828824,12.8241176 C52.3509706,13.6729412 51.7743529,14.6920588 50.8055294,14.7494118 C50.7168529,14.7542647 50.6277353,14.7529412 50.5390588,14.7529412 L42.1434706,14.7529412 L42.1434706,14.7591176 Z" id="Fill-6" fill="#F9057C" mask="url(#mask-4)"></path>
                    <path d="M17.4599559,31.6608529 C20.2653971,31.6608529 23.0708382,31.6626176 25.8762794,31.6590882 C26.2420147,31.6586471 26.5808382,31.7235 26.8689265,31.9639412 C27.2814265,32.3076176 27.4428971,32.8943824 27.2615735,33.3924706 C27.0718676,33.9130588 26.5931912,34.2549706 26.0395147,34.2554118 C24.1764265,34.2571765 22.3128971,34.2558529 20.4493676,34.2558529 C16.72275,34.2558529 12.9961324,34.2567353 9.26907353,34.2540882 C9.02598529,34.2536471 8.77186765,34.2668824 8.54113235,34.2042353 C7.93275,34.0396765 7.53480882,33.4087941 7.62127941,32.8079118 C7.71966176,32.1258529 8.24466176,31.6612941 8.92142647,31.6608529 C11.7674559,31.6608529 14.6139265,31.6608529 17.4599559,31.6608529" id="Fill-7" fill="#D3D7E1" mask="url(#mask-4)"></path>
                    <path d="M12.2403971,25.1608235 C13.3592206,25.1608235 14.4784853,25.1603824 15.59775,25.1608235 C16.34025,25.1617059 16.9058382,25.7012647 16.9305441,26.4292059 C16.9543676,27.1315588 16.4059853,27.7077353 15.6723088,27.7505294 C15.5770147,27.7558235 15.4817206,27.7558235 15.3859853,27.7558235 C13.3526029,27.7558235 11.3187794,27.7562647 9.28539706,27.7553824 C9.08819118,27.7553824 8.88789706,27.7690588 8.69510294,27.7395 C8.07789706,27.6450882 7.61686765,27.0922941 7.61113235,26.4640588 C7.60627941,25.8503824 8.05980882,25.2887647 8.65848529,25.1722941 C8.73127941,25.1581765 8.80804412,25.1612647 8.88304412,25.1612647 C10.0018676,25.1608235 11.1211324,25.1608235 12.2403971,25.1608235" id="Fill-8" fill="#D3D7E1" mask="url(#mask-4)"></path>
                    <path d="M47.3639118,25.1608235 C48.4761176,25.1608235 49.5887647,25.1603824 50.7009706,25.1608235 C51.4571471,25.1612647 52.0364118,25.7092059 52.0496471,26.4349412 C52.062,27.1478824 51.5092059,27.7227353 50.7640588,27.7492059 C50.2871471,27.7664118 49.8089118,27.7545 49.3311176,27.7558235 C47.5708235,27.7615588 45.8105294,27.7668529 44.0497941,27.7721471 C43.3717059,27.7743529 42.8136176,27.2608235 42.7337647,26.5606765 C42.6631765,25.9403824 43.1290588,25.3099412 43.7621471,25.1753824 C43.8345,25.1599412 43.9112647,25.1612647 43.9858235,25.1612647 C45.1121471,25.1608235 46.2375882,25.1608235 47.3639118,25.1608235" id="Fill-9" fill="#D3D7E1" mask="url(#mask-4)"></path>
                    <path d="M35.6679706,25.1608235 C36.7938529,25.1608235 37.9197353,25.1590588 39.0456176,25.1617059 C39.7135588,25.1634706 40.2645882,25.6628824 40.3356176,26.322 C40.4048824,26.9700882 39.9769412,27.5731765 39.3315,27.7174412 C39.1735588,27.7527353 39.0059118,27.7540588 38.8431176,27.7545 C36.7965,27.7567059 34.7494412,27.7558235 32.7019412,27.7553824 C32.5122353,27.7553824 32.3185588,27.7730294 32.1319412,27.7461176 C31.509,27.6561176 31.0554706,27.1381765 31.0294412,26.5103824 C31.0038529,25.8847941 31.4172353,25.3315588 32.0269412,25.1842059 C32.1116471,25.1634706 32.2025294,25.1617059 32.2907647,25.1617059 C33.4162059,25.1603824 34.5420882,25.1608235 35.6679706,25.1608235" id="Fill-10" fill="#D3D7E1" mask="url(#mask-4)"></path>
                    <path d="M23.9621471,25.1608235 C25.0743529,25.1608235 26.1865588,25.1603824 27.2983235,25.1608235 C28.0461176,25.1612647 28.6050882,25.6933235 28.6297941,26.4247941 C28.6540588,27.1355294 28.1233235,27.7002353 27.3821471,27.7505294 C27.2939118,27.7562647 27.2052353,27.7558235 27.1161176,27.7558235 C25.0695,27.7558235 23.022,27.7597941 20.9749412,27.7518529 C20.6877353,27.7505294 20.382,27.7425882 20.1164118,27.6477353 C19.5755294,27.4531765 19.2786176,26.9100882 19.3249412,26.3259706 C19.3668529,25.8014118 19.7722941,25.3258235 20.3017059,25.1899412 C20.3921471,25.1665588 20.4900882,25.1621471 20.5845,25.1617059 C21.7103824,25.1603824 22.8362647,25.1608235 23.9621471,25.1608235" id="Fill-11" fill="#D3D7E1" mask="url(#mask-4)"></path>
                </g>
            </g>
        </g>
    </g>
</svg>