<?xml version="1.0" encoding="UTF-8"?>
<svg width="69px" height="93px" viewBox="0 0 69 93" version="1.1" xmlns="http://www.w3.org/2000/svg" xmlns:xlink="http://www.w3.org/1999/xlink">
    <!-- Generator: Sketch 50.2 (55047) - http://www.bohemiancoding.com/sketch -->
    <title>Group 3</title>
    <desc>Created with Sketch.</desc>
    <defs>
        <polygon id="path-1" points="0.00117352621 5.45919125 4.69410483 10.1371615 9.38938318 5.45919125 4.69410483 0.781221027"></polygon>
        <polygon id="path-3" points="2.54669533 2.54505 0 12.04505 6.95425457 19 16.4552045 16.454 19 6.954 12.0457454 0"></polygon>
        <path d="M0.00234705241,7.79700686 C0.00234705241,11.9966546 3.41496126,15.399878 7.62792034,15.399878 C11.8408794,15.399878 15.2558407,11.9966546 15.2558407,7.79700686 C15.2558407,3.59852859 11.8408794,0.195305257 7.62792034,0.195305257 C3.41496126,0.195305257 0.00234705241,3.59852859 0.00234705241,7.79700686 Z" id="path-5"></path>
    </defs>
    <g id="About" stroke="none" stroke-width="1" fill="none" fill-rule="evenodd">
        <g transform="translate(-684.000000, -685.000000)" id="Group-3">
            <g transform="translate(685.000000, 684.000000)">
                <g id="Group-5" transform="translate(0.223673, 26.497307)" stroke="#D3D7E1" stroke-width="2">
                    <path d="M65.4865176,38.6606171 L65.4865176,27.6124209 L59.1999377,27.6124209 C58.5040367,24.3039265 57.195555,21.2223136 55.3988863,18.485701 L59.8500712,14.0509852 L52.0109162,6.23760549 L47.5609048,10.6723213 C44.81368,8.88416714 41.7214384,7.57901345 38.4027063,6.88667386 L38.4027063,0.62053275 L27.3152307,0.62053275 L27.3152307,6.88667386 C23.9964986,7.57901345 20.904257,8.88416714 18.1570322,10.6723213 L13.7070208,6.23760549 L5.86669221,14.0509852 L10.3178771,18.485701 C8.52238202,21.2223136 7.2139003,24.3039265 6.51799926,27.6124209 L0.231419368,27.6124209 L0.231419368,38.6606171 L6.51799926,38.6606171 C7.2139003,41.9691115 8.52238202,45.0495549 10.3178771,47.787337 L5.86669221,52.2220527 L13.7070208,60.0354325 L18.1570322,55.5995472 C20.904257,57.3888708 23.9964986,58.6940245 27.3152307,59.3863641 L27.3152307,65.6525052 L38.4027063,65.6525052 L38.4027063,59.3863641 C41.7214384,58.6940245 44.81368,57.3888708 47.5609048,55.5995472 L52.0109162,60.0354325 L59.8500712,52.2220527 L55.3988863,47.787337 C57.195555,45.0495549 58.5040367,41.9691115 59.1999377,38.6606171 L65.4865176,38.6606171 Z" id="Stroke-1"></path>
                    <path d="M47.3335928,33.136402 C47.3335928,41.1029853 40.8533811,47.5609232 32.8593206,47.5609232 C24.86526,47.5609232 18.3838748,41.1029853 18.3838748,33.136402 C18.3838748,25.1698188 24.86526,18.7118809 32.8593206,18.7118809 C40.8533811,18.7118809 47.3335928,25.1698188 47.3335928,33.136402 Z" id="Stroke-3"></path>
                </g>
                <g id="Group-8" transform="translate(38.799156, 0.512644)">
                    <mask id="mask-2" fill="white">
                        <use xlink:href="#path-1"></use>
                    </mask>
                    <g id="Clip-7"></g>
                    <polygon id="Fill-6" fill="#EBEDF2" mask="url(#mask-2)" points="-5.86763103 15.9846242 15.2558407 15.9846242 15.2558407 -5.06624175 -5.86763103 -5.06624175"></polygon>
                </g>
                <g id="Group-11" transform="translate(31.918892, 53.933230)">
                    <mask id="mask-4" fill="white">
                        <use xlink:href="#path-3"></use>
                    </mask>
                    <g id="Clip-10"></g>
                    <polygon id="Fill-9" fill="#495EF2" mask="url(#mask-4)" points="-3 28 25 28 25 0 -3 0"></polygon>
                </g>
                <g id="Group-14" transform="translate(52.646765, 11.098988)">
                    <mask id="mask-6" fill="white">
                        <use xlink:href="#path-5"></use>
                    </mask>
                    <g id="Clip-13"></g>
                    <polygon id="Fill-12" fill="#F9057C" mask="url(#mask-6)" points="-5.86763103 21.2473407 21.1234717 21.2473407 21.1234717 -5.65098802 -5.86763103 -5.65098802"></polygon>
                </g>
            </g>
        </g>
    </g>
</svg>